# xmcd
#
# Track frame offsets: 
#        150
#        14613
#        34293
#        57379
#        80417
#        104025
#        124562
#        146164
#        168276
#        192257
#        215883
#        240371
#        262470
#        297855
#        321027
#        345594
#
# Disc length: 4790 seconds
#
# Revision: 1
# Processed by: cddbd v1.5.2PL0 Copyright (c) Steve Scherf et al.
# Submitted via: ExactAudioCopy v1.0b3
#
DISCID=fb12b410
DTITLE=Stephenie Meyer gelesen von Annina Braunmiller - Biss zur Mitta
DTITLE=gsstunde CD5
DYEAR=2010
DGENRE=Hörbuch
TTITLE0=060 Das fünfte Rad am Wagen 03
TTITLE1=061 Das fünfte Rad am Wagen 04
TTITLE2=062 Das fünfte Rad am Wagen 05
TTITLE3=063 Das fünfte Rad am Wagen 06
TTITLE4=064 Das fünfte Rad am Wagen 07
TTITLE5=065 Zurück auf der Lichtung 01
TTITLE6=066 Zurück auf der Lichtung 02
TTITLE7=067 Zurück auf der Lichtung 03
TTITLE8=068 Zurück auf der Lichtung 04
TTITLE9=069 Zurück auf der Lichtung 05
TTITLE10=070 Zurück auf der Lichtung 06
TTITLE11=071 Zurück auf der Lichtung 07
TTITLE12=072 Zurück auf der Lichtung 08
TTITLE13=073 Die Gang 01
TTITLE14=074 Die Gang 02
TTITLE15=075 Die Gang 03
EXTD=gelesen von Annina Braunmiller
EXTT0=
EXTT1=
EXTT2=
EXTT3=
EXTT4=
EXTT5=
EXTT6=
EXTT7=
EXTT8=
EXTT9=
EXTT10=
EXTT11=
EXTT12=
EXTT13=
EXTT14=
EXTT15=
PLAYORDER=
